<?xml version="1.0" standalone="no"?>
<!DOCTYPE svg PUBLIC "-//W3C//DTD SVG 20010904//EN"
 "http://www.w3.org/TR/2001/REC-SVG-20010904/DTD/svg10.dtd">
<svg version="1.0" xmlns="http://www.w3.org/2000/svg"
 width="93.000000pt" height="93.000000pt" viewBox="0 0 93.000000 93.000000"
 preserveAspectRatio="xMidYMid meet">
<metadata>
Created by potrace 1.11, written by Peter Selinger 2001-2013
</metadata>
<g transform="translate(0.000000,93.000000) scale(0.100000,-0.100000)"
fill="#000000" stroke="none">
<path d="M412 865 c3 -42 3 -42 -48 -53 -40 -9 -41 -9 -53 24 l-12 34 -32 -16
c-18 -9 -40 -23 -49 -31 -16 -14 -16 -17 4 -44 l21 -28 -32 -31 c-32 -29 -41
-30 -71 -4 -20 16 -30 9 -58 -43 l-22 -42 34 -12 c35 -13 36 -14 18 -74 -8
-27 -12 -30 -45 -27 l-37 4 0 -57 0 -56 39 5 c37 4 39 3 44 -27 3 -18 8 -39
12 -49 5 -12 -1 -18 -24 -23 -37 -8 -39 -25 -10 -71 22 -37 40 -42 59 -19 18
21 26 19 60 -16 29 -31 38 -49 22 -49 -4 0 -13 -9 -19 -20 -11 -17 -9 -22 24
-45 49 -32 62 -32 75 5 7 21 15 29 27 26 9 -2 30 -7 46 -10 27 -6 30 -10 30
-44 l0 -37 54 -1 53 -1 -6 36 c-6 36 -5 37 37 49 36 9 44 9 55 -5 6 -9 12 -23
12 -30 0 -18 14 -16 60 7 42 22 50 40 25 60 -22 18 -19 33 15 65 l30 29 30
-22 30 -22 25 41 c30 46 27 66 -10 75 -29 7 -29 6 -12 59 11 37 15 40 47 40
l35 0 3 54 3 54 -36 -6 c-38 -6 -42 -2 -58 64 -6 22 -3 28 16 34 12 4 26 6 31
6 13 -3 -3 49 -25 81 l-20 28 -29 -22 -29 -21 -31 33 c-16 17 -30 35 -30 38 0
3 10 16 21 28 l21 23 -48 31 -49 31 -15 -35 c-11 -26 -20 -34 -32 -30 -9 2
-26 7 -39 9 -31 6 -34 11 -30 51 l3 34 -57 0 -56 0 3 -35z m170 -144 c48 -21
108 -72 108 -90 0 -6 4 -11 9 -11 5 0 19 -24 30 -52 38 -101 12 -225 -63 -300
-113 -113 -296 -112 -405 2 -53 55 -75 113 -75 195 0 134 84 243 211 275 54
13 133 5 185 -19z"/>
<path d="M287 621 c-2 -3 -2 -12 -1 -18 1 -7 2 -22 3 -34 1 -18 7 -20 49 -19
99 4 89 20 88 -155 -1 -148 0 -155 19 -156 11 0 28 -2 38 -4 19 -4 19 -5 19
83 l0 62 38 0 c36 0 38 2 42 35 4 38 -7 47 -53 41 -25 -3 -26 -1 -26 46 1 26
4 48 7 49 3 0 34 1 70 2 69 2 70 3 61 66 -1 10 -350 12 -354 2z"/>
</g>
</svg>
