<?xml version="1.0" encoding="utf-8"?>
<!-- Generator: Adobe Illustrator 19.1.0, SVG Export Plug-In . SVG Version: 6.00 Build 0)  -->
<svg version="1.1" id="Layer_1" xmlns="http://www.w3.org/2000/svg" xmlns:xlink="http://www.w3.org/1999/xlink" x="0px" y="0px"
	 viewBox="0 0 103 103" style="enable-background:new 0 0 103 103;" xml:space="preserve">
<style type="text/css">
	.st0{fill:#FFFFFF;}
	.st1{fill:none;stroke:#FFFFFF;stroke-width:2.4405;stroke-miterlimit:10;}
</style>
<g>
	<path class="st1" d="M98.7,57.8c0.3-2.1,0.4-4.2,0.4-6.2c0-2-0.1-4.1-0.4-6.2l0-0.1l-8.1,1c-0.5-3.5-1.4-6.8-2.7-9.9l7.6-3.1
		c-1.6-3.8-3.7-7.5-6.2-10.8l-6.5,5c-2.1-2.7-4.6-5.2-7.3-7.3l5-6.5c-3.3-2.5-6.9-4.6-10.7-6.2l-3.1,7.5c-3.1-1.3-6.5-2.2-9.9-2.7
		l1.1-8.1c-2-0.3-4.1-0.4-6.2-0.4c-2,0-4.1,0.1-6.2,0.4l0,0l1,8.1c-3.5,0.5-6.8,1.4-9.9,2.6l-3.1-7.6c-3.8,1.6-7.5,3.7-10.8,6.2
		l5,6.5c-2.7,2.1-5.2,4.5-7.3,7.3l-6.5-5c-2.5,3.3-4.6,6.9-6.2,10.7l7.5,3.1c-1.3,3.1-2.2,6.5-2.7,9.9l-8.1-1.1
		c-0.3,2-0.4,4.1-0.4,6.2c0,2,0.1,4.1,0.4,6.2l0,0l8.1-1c0.5,3.5,1.4,6.8,2.6,9.9l-7.6,3.1c1.6,3.8,3.7,7.5,6.2,10.8l6.5-5
		c2.1,2.7,4.5,5.2,7.3,7.3l-5,6.5c3.3,2.5,6.9,4.6,10.7,6.2l3.1-7.5c3.1,1.3,6.5,2.2,9.9,2.7l-1.1,8.1c2.1,0.3,4.1,0.4,6.2,0.4
		c2,0,4.1-0.1,6.2-0.4l0,0l-1.1-8.1l0,0c3.5-0.5,6.8-1.4,9.9-2.6l3.1,7.6c3.8-1.6,7.5-3.7,10.8-6.2l-5-6.5c2.7-2.1,5.2-4.5,7.3-7.3
		l6.5,5c2.5-3.3,4.6-6.9,6.2-10.7l-7.5-3.1c1.3-3.1,2.2-6.5,2.7-9.9L98.7,57.8z"/>
	<path class="st0" d="M51.5,20.4c15.4,0,28.8,11.4,30.8,27.1c2.2,17-9.8,32.6-26.8,34.8c-1.4,0.2-2.7,0.3-4,0.3
		c-15.4,0-28.8-11.4-30.8-27.1c-2.2-17,9.8-32.6,26.8-34.8C48.9,20.5,50.2,20.4,51.5,20.4 M51.5,18L51.5,18c-1.4,0-2.9,0.1-4.4,0.3
		c-18.3,2.4-31.3,19.2-28.9,37.6c2.2,16.7,16.4,29.2,33.2,29.2c1.4,0,2.9-0.1,4.4-0.3c18.3-2.4,31.3-19.2,28.9-37.6
		C82.6,30.5,68.3,18,51.5,18L51.5,18z"/>
	<path class="st1" d="M66.2,30.4c-0.8-0.8-2.2-0.8-3,0L58,35.6h0L56.6,37c-1.6,1.6-1.8,4.2-0.5,6L32.2,65.5c-1.5,1.5-1.5,3.8,0,5.3
		c1.5,1.5,3.8,1.5,5.3,0L60.1,47c1.8,1.2,4.3,1.1,5.9-0.5l1.4-1.4v0l5.2-5.2c0.8-0.8,0.8-2.2,0-3l0,0c-0.8-0.8-2.2-0.8-3,0l-2.9,2.9
		l0,0l2.9-2.9c0.8-0.8,0.8-2.2,0-3l0,0c-0.8-0.8-2.2-0.8-3,0l-2.9,2.9l0,0l2.9-2.9c0.8-0.8,0.8-2.2,0-3L66.2,30.4z"/>
	<path class="st1" d="M50.6,46.8l-4.2-4c0.5-2.5-0.5-5.6-2.9-8c-3.4-3.4-8.1-4.1-10.6-1.6c-2.5,2.5-1.8,7.3,1.6,10.6
		c2.4,2.4,5.6,3.5,8.1,2.9l3.8,4"/>
	<path class="st1" d="M51.1,55.9l14.3,15.2c1.5,1.5,3.8,1.5,5.3,0c1.5-1.5,1.5-3.8,0-5.3l-15-14.2"/>
</g>
</svg>
