<?xml version="1.0" encoding="utf-8"?>
<!-- Generator: Adobe Illustrator 19.1.0, SVG Export Plug-In . SVG Version: 6.00 Build 0)  -->
<svg version="1.1" id="Layer_1" xmlns="http://www.w3.org/2000/svg" xmlns:xlink="http://www.w3.org/1999/xlink" x="0px" y="0px"
	 viewBox="0 0 121.5 121.5" style="enable-background:new 0 0 121.5 121.5;" xml:space="preserve">
<style type="text/css">
	.st0{fill:#FFFFFF;}
	.st1{fill:none;stroke:#FFFFFF;stroke-width:2.4405;stroke-miterlimit:10;}
</style>
<g>
	<path class="st0" d="M121,68.8c0.3-2.6,0.5-5.3,0.5-8c0-2.6-0.2-5.3-0.5-7.9l0-0.1l-10.3,1.3c-0.6-4.5-1.7-8.7-3.4-12.7l9.6-4
		c-2-4.9-4.7-9.5-7.9-13.7l-8.3,6.4c-2.7-3.5-5.8-6.6-9.3-9.3l6.4-8.3C93.5,9.3,88.9,6.7,84,4.6l-4,9.6c-4-1.7-8.3-2.8-12.7-3.4
		l1.4-10.3C66.1,0.2,63.4,0,60.8,0c-2.6,0-5.3,0.2-7.9,0.5l-0.1,0l1.3,10.3c-4.5,0.6-8.7,1.7-12.7,3.4l-4-9.6
		c-4.9,2-9.5,4.7-13.7,7.9l6.4,8.3c-3.5,2.7-6.6,5.8-9.3,9.3l-8.3-6.4c-3.2,4.2-5.9,8.8-7.9,13.7l9.6,4c-1.7,4-2.8,8.3-3.4,12.7
		L0.5,52.8C0.2,55.4,0,58,0,60.7c0,2.6,0.2,5.3,0.5,7.9l0,0l10.3-1.3c0.6,4.5,1.7,8.7,3.4,12.7l-9.6,4c2,4.9,4.7,9.5,7.9,13.7
		l8.3-6.4c2.7,3.5,5.8,6.6,9.3,9.3l-6.4,8.3c4.2,3.2,8.8,5.9,13.7,7.9l4-9.6c4,1.7,8.3,2.8,12.7,3.4L52.7,121
		c2.6,0.3,5.3,0.5,7.9,0.5c2.6,0,5.3-0.2,7.9-0.5l0,0l-1.3-10.3l0,0c4.5-0.6,8.7-1.7,12.7-3.4l4,9.7c4.9-2,9.5-4.7,13.8-7.9
		l-6.3-8.3c3.5-2.7,6.6-5.8,9.3-9.3l8.3,6.4c3.2-4.2,5.9-8.8,8-13.7l-9.6-4c1.7-4,2.8-8.3,3.4-12.7L121,68.8z M65.9,100.1
		C44.1,103,24.2,87.6,21.4,65.9c-2.8-21.8,12.5-41.7,34.3-44.5c21.8-2.8,41.7,12.5,44.5,34.3C103,77.4,87.6,97.3,65.9,100.1z"/>
	<polygon class="st0" points="59,38.1 35.8,38.1 35.8,48.6 55.5,48.6 55.5,92.6 66,92.6 66,72.7 77,72.7 77,62.1 68.7,62.1 68,62.1 
		66,62.1 66,48.6 85.7,48.6 85.7,38.1 60.9,38.1 	"/>
</g>
</svg>
