<?xml version="1.0" encoding="utf-8"?>
<!-- Generator: Adobe Illustrator 16.0.0, SVG Export Plug-In . SVG Version: 6.00 Build 0)  -->
<!DOCTYPE svg PUBLIC "-//W3C//DTD SVG 1.1//EN" "http://www.w3.org/Graphics/SVG/1.1/DTD/svg11.dtd">
<svg version="1.1" id="Layer_1" xmlns="http://www.w3.org/2000/svg" xmlns:xlink="http://www.w3.org/1999/xlink" x="0px" y="0px"
	 width="595.28px" height="137.75px" viewBox="0 0 595.28 137.75" enable-background="new 0 0 595.28 137.75" xml:space="preserve">
<path fill="#FFFFFF" d="M23.875,48.665l33.753,33.753L17.165,122.88l-6.855-6.855l33.606-33.606L10.163,48.665l37.669-37.669
	l6.856,6.855L23.875,48.665z M169.229,17.618l-7.085-6.619l-40.774,43.649V13.003h-9.695v107.87h9.695V79.09l41.546,43.788
	l7.033-6.673L123.18,66.912L169.229,17.618z M363.753,11.036l-44.881,55.93l51.194,62.653V62.091h-9.695v40.34l-29.023-35.52
	l39.968-49.807L363.753,11.036z M474.266,65.996l-33.321,37.321V13.003h-9.696v115.729l52.704-59.029l0.13-56.69l-9.694-0.022
	L474.266,65.996z M282.514,16.533l-17.22,25.611l16.294,24.794l-38.033,57.874l-16.838-25.295l-15.623,23.235l-8.046-5.409
	l17.857-26.557l-15.876-23.849l38.526-57.874l15.965,24.293l14.949-22.234L282.514,16.533z M226.757,82.082l26.895-40l-10.15-15.445
	l-26.825,40.3L226.757,82.082z M259.427,50.87l-26.858,39.943l10.933,16.425l26.484-40.3L259.427,50.87z M578.981,63.494
	l-40.829,40.828V13.003h-9.695v114.725l57.38-57.379L578.981,63.494z"/>
</svg>
