<?xml version="1.0" encoding="UTF-8" standalone="no"?>
<!-- Generator: Adobe Illustrator 19.1.0, SVG Export Plug-In . SVG Version: 6.00 Build 0)  -->

<svg
   xmlns:dc="http://purl.org/dc/elements/1.1/"
   xmlns:cc="http://creativecommons.org/ns#"
   xmlns:rdf="http://www.w3.org/1999/02/22-rdf-syntax-ns#"
   xmlns:svg="http://www.w3.org/2000/svg"
   xmlns="http://www.w3.org/2000/svg"
   xmlns:sodipodi="http://sodipodi.sourceforge.net/DTD/sodipodi-0.dtd"
   xmlns:inkscape="http://www.inkscape.org/namespaces/inkscape"
   version="1.1"
   id="Layer_1"
   x="0px"
   y="0px"
   viewBox="0 0 117 103"
   style="enable-background:new 0 0 117 103;"
   xml:space="preserve"
   inkscape:version="0.48.4 r9939"
   width="100%"
   height="100%"
   sodipodi:docname="tf_natside_logon-07.svg"><metadata
     id="metadata5057"><rdf:RDF><cc:Work
         rdf:about=""><dc:format>image/svg+xml</dc:format><dc:type
           rdf:resource="http://purl.org/dc/dcmitype/StillImage" /><dc:title></dc:title></cc:Work></rdf:RDF></metadata><defs
     id="defs5055" /><sodipodi:namedview
     pagecolor="#ffffff"
     bordercolor="#666666"
     borderopacity="1"
     objecttolerance="10"
     gridtolerance="10"
     guidetolerance="10"
     inkscape:pageopacity="0"
     inkscape:pageshadow="2"
     inkscape:window-width="640"
     inkscape:window-height="480"
     id="namedview5053"
     showgrid="false"
     inkscape:zoom="2.2912621"
     inkscape:cx="58.5"
     inkscape:cy="51.5"
     inkscape:window-x="0"
     inkscape:window-y="30"
     inkscape:window-maximized="0"
     inkscape:current-layer="Layer_1" /><style
     type="text/css"
     id="style5021">
	.st0{fill:#FFFFFF;}
	.st1{fill:none;stroke:#FFFFFF;stroke-width:2.4405;stroke-miterlimit:10;}
</style><g
     id="g5023"
     style="fill:#ffffff"><g
       id="g5025"
       style="fill:#ffffff"><path
         d="M94.2,95.9L56.4,69.9L24.6,83.7l-13-29.4l13.9-6.2L7.1,35.1L25.3,8.9l34.2,23.7l34.6-15.3l13.5,29.2L90.7,54L112,69.2    L94.2,95.9z M56.7,67.1l36.9,25.4l15.1-22.8L85.8,53.5l18.6-8.2L92.9,20.5L59.2,35.4L25.9,12.3L10.4,34.5l19.8,14.1l-15.5,7    l11.1,25L56.7,67.1z"
         id="path5027"
         style="fill:#ffffff" /></g><g
       id="g5029"
       style="fill:#ffffff"><rect
         x="27.7"
         y="49.8"
         transform="matrix(0.9961 8.870558e-02 -8.870558e-02 0.9961 4.7567 -4.9474)"
         width="60.6"
         height="2.4"
         id="rect5031"
         style="fill:#ffffff" /></g><g
       id="g5033"
       style="fill:#ffffff"><polygon
         points="57.7,68.7 55.4,68.3 58.4,50.9 58.2,34 60.6,34 60.8,51.1   "
         id="polygon5035"
         style="fill:#ffffff" /></g><g
       id="g5037"
       style="fill:#ffffff"><polygon
         points="64.1,53.8 8.4,35.9 9.1,33.6 55,48.3 21.4,16.3 23.1,14.5   "
         id="polygon5039"
         style="fill:#ffffff" /></g><g
       id="g5041"
       style="fill:#ffffff"><polygon
         points="54.9,53.8 92.7,18 94.4,19.8 64.2,48.3 101.7,36.2 102.4,38.5   "
         id="polygon5043"
         style="fill:#ffffff" /></g><g
       id="g5045"
       style="fill:#ffffff"><polygon
         points="26,83 24.4,81.3 55.3,53.3 16.3,62.7 15.7,60.3 63.8,48.8   "
         id="polygon5047"
         style="fill:#ffffff" /></g><g
       id="g5049"
       style="fill:#ffffff"><polygon
         points="95.9,90.8 55.1,48.2 110.7,68.4 109.9,70.6 64,53.9 97.6,89.1   "
         id="polygon5051"
         style="fill:#ffffff" /></g></g></svg>