<?xml version="1.0" encoding="UTF-8" standalone="no"?>
<!-- Generator: Adobe Illustrator 19.1.0, SVG Export Plug-In . SVG Version: 6.00 Build 0)  -->

<svg
   xmlns:dc="http://purl.org/dc/elements/1.1/"
   xmlns:cc="http://creativecommons.org/ns#"
   xmlns:rdf="http://www.w3.org/1999/02/22-rdf-syntax-ns#"
   xmlns:svg="http://www.w3.org/2000/svg"
   xmlns="http://www.w3.org/2000/svg"
   xmlns:sodipodi="http://sodipodi.sourceforge.net/DTD/sodipodi-0.dtd"
   xmlns:inkscape="http://www.inkscape.org/namespaces/inkscape"
   version="1.1"
   id="Layer_1"
   x="0px"
   y="0px"
   viewBox="0 0 103 103"
   style="enable-background:new 0 0 103 103;"
   xml:space="preserve"
   inkscape:version="0.48.4 r9939"
   width="100%"
   height="100%"
   sodipodi:docname="tf_natside_logon-05.svg"><metadata
     id="metadata4985"><rdf:RDF><cc:Work
         rdf:about=""><dc:format>image/svg+xml</dc:format><dc:type
           rdf:resource="http://purl.org/dc/dcmitype/StillImage" /><dc:title></dc:title></cc:Work></rdf:RDF></metadata><defs
     id="defs4983" /><sodipodi:namedview
     pagecolor="#ffffff"
     bordercolor="#666666"
     borderopacity="1"
     objecttolerance="10"
     gridtolerance="10"
     guidetolerance="10"
     inkscape:pageopacity="0"
     inkscape:pageshadow="2"
     inkscape:window-width="640"
     inkscape:window-height="480"
     id="namedview4981"
     showgrid="false"
     inkscape:zoom="2.2912621"
     inkscape:cx="51.5"
     inkscape:cy="51.5"
     inkscape:window-x="0"
     inkscape:window-y="30"
     inkscape:window-maximized="0"
     inkscape:current-layer="Layer_1" /><style
     type="text/css"
     id="style4957">
	.st0{fill:#FFFFFF;}
	.st1{fill:none;stroke:#FFFFFF;stroke-width:2.4405;stroke-miterlimit:10;}
</style><g
     id="g4959"
     style="fill:#ffffff"><g
       id="g4961"
       style="fill:#ffffff"><path
         d="M51.5,100.3c-2.1,0-4.3-0.1-6.4-0.4l-1.2-0.2l1.1-8.1c-2.7-0.4-5.3-1.2-7.9-2.1L33.9,97l-1.1-0.5c-3.9-1.6-7.6-3.8-11-6.4    l-1-0.7l5-6.5c-2.1-1.7-4.1-3.7-5.8-5.8l-6.5,5l-0.7-1c-2.6-3.4-4.7-7.1-6.4-11L5.9,69l7.6-3.1c-1-2.5-1.7-5.2-2.1-7.9l-8.1,1    l-0.2-1.2c-0.3-2.1-0.4-4.3-0.4-6.4c0-2.1,0.1-4.3,0.4-6.4l0.2-1.2l8.1,1.1c0.4-2.7,1.2-5.3,2.1-7.9L6,33.9l0.5-1.1    c1.6-3.9,3.8-7.6,6.4-11l0.7-1l6.5,5c1.7-2.1,3.7-4.1,5.8-5.8l-5-6.5l1-0.7c3.4-2.6,7.1-4.7,11-6.4L34,5.9l3.1,7.6    c2.5-1,5.2-1.7,7.9-2.1l-1-8.1l1.2-0.2c4.3-0.6,8.5-0.5,12.7,0l1.2,0.2L58,11.4c2.7,0.4,5.3,1.1,7.9,2.1L69.1,6l1.1,0.5    c3.9,1.6,7.6,3.8,11,6.4l1,0.7l-5,6.5c2.1,1.7,4.1,3.7,5.8,5.8l6.5-5l0.7,1c2.6,3.4,4.7,7.1,6.4,11l0.5,1.1l-7.6,3.1    c1,2.5,1.7,5.2,2.1,7.9l8.1-1l0.2,1.2c0.3,2.2,0.4,4.3,0.4,6.4c0,2.1-0.1,4.3-0.4,6.4l-0.2,1.2l-8.1-1.1c-0.4,2.7-1.2,5.3-2.1,7.9    l7.6,3.2l-0.5,1.1c-1.6,3.9-3.8,7.6-6.4,11l-0.7,1l-6.5-5c-1.7,2.1-3.7,4-5.8,5.8l5,6.5l-1,0.7c-3.4,2.6-7.1,4.7-11,6.4L69,97.1    l-3.1-7.6c-2.6,1-5.2,1.7-7.9,2.1l1.1,8.1l-1.2,0.2C55.7,100.2,53.6,100.3,51.5,100.3z M46.6,97.6c3.2,0.3,6.4,0.3,9.7,0l-1-8.1    l1.2-0.2c3.3-0.4,6.6-1.3,9.6-2.6l1.1-0.5l3.1,7.5c3-1.3,5.8-2.9,8.4-4.8l-5-6.5l1-0.7c2.6-2,5-4.4,7.1-7l0.7-1l6.5,5    c1.9-2.6,3.5-5.4,4.9-8.4l-7.5-3.1l0.5-1.1c1.3-3.1,2.2-6.3,2.6-9.6l0.2-1.2l8.1,1.1c0.2-1.6,0.3-3.2,0.3-4.9    c0-1.6-0.1-3.2-0.3-4.9l-8.1,1l-0.2-1.2c-0.4-3.3-1.3-6.6-2.6-9.6l-0.5-1.1l7.5-3.1c-1.3-3-2.9-5.8-4.8-8.4l-6.5,5l-0.7-1    c-2-2.6-4.4-5-7-7l-1-0.7l5-6.5c-2.6-1.9-5.4-3.5-8.4-4.8l-3.1,7.5l-1.1-0.5c-3.1-1.3-6.3-2.1-9.6-2.6l-1.2-0.2l1.1-8.1    c-3.2-0.3-6.4-0.3-9.7,0l1,8.1l-1.2,0.2c-3.3,0.4-6.6,1.3-9.6,2.6l-1.1,0.5l-3.1-7.5c-3,1.3-5.8,2.9-8.4,4.8l5,6.5l-1,0.7    c-2.6,2-5,4.4-7,7l-0.7,1l-6.5-5c-1.9,2.6-3.5,5.4-4.8,8.4l7.5,3.1l-0.5,1.1c-1.3,3.1-2.2,6.3-2.6,9.6l-0.2,1.2l-8.1-1.1    c-0.2,1.6-0.3,3.2-0.3,4.8c0,1.6,0.1,3.2,0.3,4.8l8.1-1l0.2,1.2c0.4,3.3,1.3,6.6,2.6,9.6l0.5,1.1l-7.5,3.1c1.3,3,2.9,5.8,4.8,8.4    l6.5-5l0.7,1c2,2.6,4.4,5,7,7.1l1,0.7l-5,6.5c2.6,1.9,5.4,3.5,8.4,4.8l3.1-7.5l1.1,0.5c3.1,1.3,6.3,2.2,9.6,2.6l1.2,0.2L46.6,97.6    z"
         id="path4963"
         style="fill:#ffffff" /></g><g
       id="g4965"
       style="fill:#ffffff"><path
         d="M51.5,20.4c15.4,0,28.8,11.4,30.8,27.1c2.2,17-9.8,32.6-26.8,34.8c-1.4,0.2-2.7,0.3-4,0.3c-15.4,0-28.8-11.4-30.8-27.1    c-2.2-17,9.8-32.6,26.8-34.8C48.9,20.5,50.2,20.4,51.5,20.4 M51.5,18L51.5,18c-1.4,0-2.9,0.1-4.4,0.3    c-18.3,2.4-31.3,19.2-28.9,37.6c2.2,16.7,16.4,29.2,33.2,29.2c1.4,0,2.9-0.1,4.4-0.3c8.9-1.2,16.8-5.7,22.3-12.8    s7.8-15.9,6.7-24.8C82.6,30.5,68.3,18,51.5,18L51.5,18z"
         id="path4967"
         style="fill:#ffffff" /></g><g
       id="g4969"
       style="fill:#ffffff"><path
         d="M34.8,73.1c-1.3,0-2.5-0.5-3.5-1.4c-0.9-0.9-1.4-2.2-1.4-3.5s0.5-2.6,1.4-3.5l23.2-21.9c-1-2.2-0.6-4.9,1.2-6.6l6.6-6.6    c1.3-1.3,3.5-1.3,4.8,0l0.2,0.2c0.6,0.6,0.9,1.3,1,2.1c0.8,0.1,1.5,0.4,2.1,1c0.6,0.6,0.9,1.3,1,2.1c0.8,0.1,1.5,0.4,2.1,1    c1.3,1.3,1.3,3.5,0,4.8l-6.6,6.6c-1.7,1.7-4.4,2.2-6.6,1.2L38.4,71.7C37.4,72.6,36.1,73.1,34.8,73.1z M64.7,31    c-0.2,0-0.5,0.1-0.7,0.3l-6.6,6.6c-1.2,1.2-1.3,3.1-0.4,4.4l0.6,0.9L33,66.4c-0.4,0.4-0.7,1.1-0.7,1.7c0,0.7,0.3,1.3,0.7,1.8    c1,1,2.6,1,3.5,0l23.3-24.6l0.9,0.6c1.4,0.9,3.2,0.8,4.4-0.4l6.6-6.6c0.2-0.2,0.3-0.4,0.3-0.7c0-0.2-0.1-0.5-0.3-0.7    c-0.4-0.4-1-0.4-1.3,0l-2.9,2.9l-1.7-1.7l2.9-2.9c0.2-0.2,0.3-0.4,0.3-0.7c0-0.2-0.1-0.5-0.3-0.7c-0.4-0.4-1-0.4-1.4,0l-2.9,2.9    l-1.7-1.7l2.9-2.9c0.4-0.4,0.4-1,0-1.3l-0.2-0.2C65.2,31.1,64.9,31,64.7,31z"
         id="path4971"
         style="fill:#ffffff" /></g><g
       id="g4973"
       style="fill:#ffffff"><path
         d="M45.5,51.7l-3.3-3.5c-2.9,0.4-6.1-0.9-8.5-3.3c-1.8-1.8-3-4.1-3.3-6.3c-0.4-2.4,0.3-4.5,1.8-6c1.5-1.5,3.6-2.1,6-1.8    c2.3,0.3,4.5,1.5,6.3,3.3c2.4,2.4,3.7,5.6,3.4,8.4l3.7,3.5l-1.7,1.8l-4.7-4.4l0.1-0.7c0.4-2.2-0.6-4.9-2.6-6.9    c-1.4-1.4-3.2-2.4-4.9-2.6c-1.6-0.2-3,0.1-4,1.1c-2,2-1.3,6,1.6,8.9c2.1,2.1,4.8,3.1,7,2.6l0.7-0.2l4.3,4.5L45.5,51.7z"
         id="path4975"
         style="fill:#ffffff" /></g><g
       id="g4977"
       style="fill:#ffffff"><path
         d="M68,73.4c-1.3,0-2.6-0.5-3.5-1.4L50.2,56.7L52,55l14.3,15.2c0.9,0.9,2.6,0.9,3.5,0c1-1,1-2.6,0-3.5l-15-14.2l1.7-1.8    l15,14.2c2,2,2,5.1,0,7C70.6,72.9,69.4,73.4,68,73.4z"
         id="path4979"
         style="fill:#ffffff" /></g></g></svg>