<?xml version="1.0" encoding="UTF-8" standalone="no"?>
<!-- Generator: Adobe Illustrator 19.1.0, SVG Export Plug-In . SVG Version: 6.00 Build 0)  -->

<svg
   xmlns:dc="http://purl.org/dc/elements/1.1/"
   xmlns:cc="http://creativecommons.org/ns#"
   xmlns:rdf="http://www.w3.org/1999/02/22-rdf-syntax-ns#"
   xmlns:svg="http://www.w3.org/2000/svg"
   xmlns="http://www.w3.org/2000/svg"
   xmlns:sodipodi="http://sodipodi.sourceforge.net/DTD/sodipodi-0.dtd"
   xmlns:inkscape="http://www.inkscape.org/namespaces/inkscape"
   version="1.1"
   id="Layer_1"
   x="0px"
   y="0px"
   viewBox="0 0 103 103"
   style="enable-background:new 0 0 103 103;"
   xml:space="preserve"
   inkscape:version="0.48.4 r9939"
   width="100%"
   height="100%"
   sodipodi:docname="tf_natside_logon-06.svg"><metadata
     id="metadata5018"><rdf:RDF><cc:Work
         rdf:about=""><dc:format>image/svg+xml</dc:format><dc:type
           rdf:resource="http://purl.org/dc/dcmitype/StillImage" /><dc:title></dc:title></cc:Work></rdf:RDF></metadata><defs
     id="defs5016" /><sodipodi:namedview
     pagecolor="#ffffff"
     bordercolor="#666666"
     borderopacity="1"
     objecttolerance="10"
     gridtolerance="10"
     guidetolerance="10"
     inkscape:pageopacity="0"
     inkscape:pageshadow="2"
     inkscape:window-width="640"
     inkscape:window-height="480"
     id="namedview5014"
     showgrid="false"
     inkscape:zoom="2.2912621"
     inkscape:cx="51.5"
     inkscape:cy="51.5"
     inkscape:window-x="0"
     inkscape:window-y="30"
     inkscape:window-maximized="0"
     inkscape:current-layer="Layer_1" /><style
     type="text/css"
     id="style4988">
	.st0{fill:#FFFFFF;}
	.st1{fill:none;stroke:#FFFFFF;stroke-width:2.4405;stroke-miterlimit:10;}
</style><g
     id="g4990"
     style="fill:#ffffff"><g
       id="g4992"
       style="fill:#ffffff"><g
         id="g4994"
         style="fill:#ffffff"><path
           d="M25.7,38.7c-1.2,0-2.1-0.4-2.6-1.2l0,0c-0.7-1.2-1.1-4.7,11.7-12.9c12.5-8,16.2-6.4,17.2-4.8c0.4,0.7,0.8,1.8-0.1,3.4     c-2.9,5.6-20,15.2-26,15.5C25.9,38.7,25.8,38.7,25.7,38.7z M25.4,36.1c2.8,0.6,17.7-6.6,23.1-12.6c1.3-1.5,1.4-2.2,1.3-2.3     c-0.1-0.1-0.7-0.4-2.6,0.1C39.5,23.4,26.3,33.3,25.4,36.1z"
           id="path4996"
           style="fill:#ffffff" /></g><g
         id="g4998"
         style="fill:#ffffff"><path
           d="M61.6,80.2c-0.1,0-0.2,0-0.3,0c-0.7-0.2-1.1-0.9-1-1.6c0.8-3.4-2.5-9.5-4.5-13.2l-0.5-1c-2.8-5.3-5.6-8.2-8.3-8.8     c-0.8-0.2-1.7-0.3-2.7-0.4c-4.3-0.6-10.1-1.4-13.9-6.3C26,43.1,23.1,37.7,23,37.4c-0.3-0.6-0.1-1.4,0.6-1.8     c0.6-0.3,1.4-0.1,1.8,0.6c0,0.1,2.8,5.5,7.1,10.9c3.2,4,8.2,4.8,12.2,5.3c1.1,0.2,2.1,0.3,2.9,0.5c3.5,0.8,6.8,4.1,10,10.2l0.5,1     c2.3,4.3,5.7,10.7,4.7,15C62.7,79.7,62.2,80.2,61.6,80.2z"
           id="path5000"
           style="fill:#ffffff" /></g><g
         id="g5002"
         style="fill:#ffffff"><path
           d="M70.7,74.8c-0.1,0-0.2,0-0.3,0c-4.3-1.1-8.3-7.2-11-11.2l-0.6-0.9c-2.9-4.3-5.7-9.2-4.5-13.5c0.2-0.9,0.6-1.8,1-2.8     c1.4-3.8,3.1-8.6,1-13.3c-2.8-6.3-6.3-11.3-6.3-11.4c-0.4-0.6-0.3-1.4,0.3-1.8c0.6-0.4,1.4-0.3,1.8,0.3c0.1,0.2,3.6,5.3,6.6,11.8     c2.5,5.7,0.5,11.2-1,15.3c-0.4,1-0.7,1.9-0.9,2.6c-0.9,3.3,1.7,7.8,4.1,11.3l0.6,1c2.3,3.5,6.2,9.3,9.5,10.2     c0.7,0.2,1.1,0.9,0.9,1.6C71.8,74.4,71.3,74.8,70.7,74.8z"
           id="path5004"
           style="fill:#ffffff" /></g><g
         id="g5006"
         style="fill:#ffffff"><path
           d="M57.4,86.2c-2.3,0-4.1-0.7-5-2.2c-2-3.5,2.4-8.7,7.6-12.2c0.6-0.4,1.4-0.3,1.8,0.3c0.4,0.6,0.3,1.4-0.3,1.8     c-5.5,3.8-7.5,7.5-6.8,8.8c0.9,1.6,6.7,1.3,13.7-2.6c7-4,10.2-8.8,9.3-10.3c-0.7-1.3-5-1.5-11.1,1.3c-0.7,0.3-1.4,0-1.7-0.6     c-0.3-0.7,0-1.4,0.6-1.7C71.3,66,78,64.9,80,68.4c2.2,4-3.6,10.1-10.3,13.9C65.6,84.6,61,86.2,57.4,86.2z"
           id="path5008"
           style="fill:#ffffff" /></g></g><g
       id="g5010"
       style="fill:#ffffff"><path
         d="M52.1,98.8c-4.2,0-8.4-0.6-12.5-1.7C27.7,93.7,17.7,86,11.7,75.2C5.6,64.4,4,51.9,7.4,40c3.3-11.9,11.1-21.8,21.8-27.9    C51.4-0.5,79.8,7.4,92.3,29.6c12.6,22.2,4.7,50.5-17.6,63.1C67.7,96.7,59.9,98.8,52.1,98.8z M51.9,9.4c-7.2,0-14.4,1.8-21.1,5.6    c-10,5.7-17.2,14.9-20.3,25.9s-1.7,22.7,4,32.7s14.9,17.2,25.9,20.3c11.1,3.1,22.7,1.7,32.7-4c10-5.7,17.2-14.9,20.3-25.9    s1.7-22.7-4-32.7C81.6,17.3,66.9,9.4,51.9,9.4z"
         id="path5012"
         style="fill:#ffffff" /></g></g></svg>